<svg id="visual" viewBox="0 0 1920 1080" width="1920" height="1080" xmlns="http://www.w3.org/2000/svg" xmlns:xlink="http://www.w3.org/1999/xlink" version="1.1"><rect x="0" y="0" width="1920" height="1080" fill="#001220"></rect><defs><linearGradient id="grad1_0" x1="43.8%" y1="0%" x2="100%" y2="100%"><stop offset="14.444444444444446%" stop-color="#001220" stop-opacity="1"></stop><stop offset="85.55555555555554%" stop-color="#001220" stop-opacity="1"></stop></linearGradient></defs><defs><linearGradient id="grad2_0" x1="0%" y1="0%" x2="56.3%" y2="100%"><stop offset="14.444444444444446%" stop-color="#001220" stop-opacity="1"></stop><stop offset="85.55555555555554%" stop-color="#001220" stop-opacity="1"></stop></linearGradient></defs><g transform="translate(1920, 0)"><path d="M0 972C-91.7 978.8 -183.4 985.6 -250.5 935C-317.7 884.4 -360.4 776.4 -410.5 711C-460.6 645.6 -518 622.7 -596.8 596.8C-675.6 570.9 -775.6 542 -837.4 483.5C-899.3 425 -922.8 337.1 -938.9 251.6C-954.9 166.1 -963.5 83 -972 0L0 0Z" fill="#FBAE3C"></path></g><g transform="translate(0, 1080)"><path d="M0 -972C66.8 -894.1 133.6 -816.2 215.3 -803.7C297.1 -791.1 393.8 -844.1 485 -840C576.2 -836 662 -775.1 687.3 -687.3C712.6 -599.5 677.5 -484.8 711.9 -411C746.3 -337.2 850.1 -304.2 905.1 -242.5C960 -180.8 966 -90.4 972 0L0 0Z" fill="#FBAE3C"></path></g></svg>