<svg id="visual" viewBox="0 0 960 540" width="960" height="540" xmlns="http://www.w3.org/2000/svg" xmlns:xlink="http://www.w3.org/1999/xlink" version="1.1"><rect x="0" y="0" width="960" height="540" fill="#001220"></rect><path d="M0 277L20 277.8C40 278.7 80 280.3 120 256.7C160 233 200 184 240 157.3C280 130.7 320 126.3 360 123.8C400 121.3 440 120.7 480 139.5C520 158.3 560 196.7 600 218.5C640 240.3 680 245.7 720 248.3C760 251 800 251 840 232.5C880 214 920 177 940 158.5L960 140L960 541L940 541C920 541 880 541 840 541C800 541 760 541 720 541C680 541 640 541 600 541C560 541 520 541 480 541C440 541 400 541 360 541C320 541 280 541 240 541C200 541 160 541 120 541C80 541 40 541 20 541L0 541Z" fill="#fa7268"></path><path d="M0 225L20 229.8C40 234.7 80 244.3 120 232.5C160 220.7 200 187.3 240 175.3C280 163.3 320 172.7 360 172.8C400 173 440 164 480 161.8C520 159.7 560 164.3 600 166.5C640 168.7 680 168.3 720 173.5C760 178.7 800 189.3 840 190.3C880 191.3 920 182.7 940 178.3L960 174L960 541L940 541C920 541 880 541 840 541C800 541 760 541 720 541C680 541 640 541 600 541C560 541 520 541 480 541C440 541 400 541 360 541C320 541 280 541 240 541C200 541 160 541 120 541C80 541 40 541 20 541L0 541Z" fill="#ee5d67"></path><path d="M0 245L20 254.3C40 263.7 80 282.3 120 281.5C160 280.7 200 260.3 240 258.2C280 256 320 272 360 266C400 260 440 232 480 219.2C520 206.3 560 208.7 600 220.7C640 232.7 680 254.3 720 276.5C760 298.7 800 321.3 840 325C880 328.7 920 313.3 940 305.7L960 298L960 541L940 541C920 541 880 541 840 541C800 541 760 541 720 541C680 541 640 541 600 541C560 541 520 541 480 541C440 541 400 541 360 541C320 541 280 541 240 541C200 541 160 541 120 541C80 541 40 541 20 541L0 541Z" fill="#e04867"></path><path d="M0 272L20 276.8C40 281.7 80 291.3 120 301C160 310.7 200 320.3 240 308.3C280 296.3 320 262.7 360 253C400 243.3 440 257.7 480 259.8C520 262 560 252 600 246.5C640 241 680 240 720 248.8C760 257.7 800 276.3 840 274.5C880 272.7 920 250.3 940 239.2L960 228L960 541L940 541C920 541 880 541 840 541C800 541 760 541 720 541C680 541 640 541 600 541C560 541 520 541 480 541C440 541 400 541 360 541C320 541 280 541 240 541C200 541 160 541 120 541C80 541 40 541 20 541L0 541Z" fill="#d03267"></path><path d="M0 332L20 338.7C40 345.3 80 358.7 120 347.7C160 336.7 200 301.3 240 298.5C280 295.7 320 325.3 360 340.3C400 355.3 440 355.7 480 345.7C520 335.7 560 315.3 600 306.8C640 298.3 680 301.7 720 298.2C760 294.7 800 284.3 840 297.2C880 310 920 346 940 364L960 382L960 541L940 541C920 541 880 541 840 541C800 541 760 541 720 541C680 541 640 541 600 541C560 541 520 541 480 541C440 541 400 541 360 541C320 541 280 541 240 541C200 541 160 541 120 541C80 541 40 541 20 541L0 541Z" fill="#c62368"></path><path d="M0 410L20 396.5C40 383 80 356 120 357.8C160 359.7 200 390.3 240 401.2C280 412 320 403 360 393.2C400 383.3 440 372.7 480 371.3C520 370 560 378 600 387.8C640 397.7 680 409.3 720 412.7C760 416 800 411 840 398.7C880 386.3 920 366.7 940 356.8L960 347L960 541L940 541C920 541 880 541 840 541C800 541 760 541 720 541C680 541 640 541 600 541C560 541 520 541 480 541C440 541 400 541 360 541C320 541 280 541 240 541C200 541 160 541 120 541C80 541 40 541 20 541L0 541Z" fill="#c62368"></path><path d="M0 435L20 425C40 415 80 395 120 387C160 379 200 383 240 388.7C280 394.3 320 401.7 360 407C400 412.3 440 415.7 480 412.2C520 408.7 560 398.3 600 389.8C640 381.3 680 374.7 720 374.5C760 374.3 800 380.7 840 386.5C880 392.3 920 397.7 940 400.3L960 403L960 541L940 541C920 541 880 541 840 541C800 541 760 541 720 541C680 541 640 541 600 541C560 541 520 541 480 541C440 541 400 541 360 541C320 541 280 541 240 541C200 541 160 541 120 541C80 541 40 541 20 541L0 541Z" fill="#d03267"></path><path d="M0 385L20 385.8C40 386.7 80 388.3 120 393.3C160 398.3 200 406.7 240 418.3C280 430 320 445 360 450.3C400 455.7 440 451.3 480 443.3C520 435.3 560 423.7 600 426.5C640 429.3 680 446.7 720 450.5C760 454.3 800 444.7 840 431.2C880 417.7 920 400.3 940 391.7L960 383L960 541L940 541C920 541 880 541 840 541C800 541 760 541 720 541C680 541 640 541 600 541C560 541 520 541 480 541C440 541 400 541 360 541C320 541 280 541 240 541C200 541 160 541 120 541C80 541 40 541 20 541L0 541Z" fill="#e04867"></path><path d="M0 479L20 479.5C40 480 80 481 120 472.7C160 464.3 200 446.7 240 450.5C280 454.3 320 479.7 360 485.2C400 490.7 440 476.3 480 471.8C520 467.3 560 472.7 600 469.2C640 465.7 680 453.3 720 453.3C760 453.3 800 465.7 840 464.3C880 463 920 448 940 440.5L960 433L960 541L940 541C920 541 880 541 840 541C800 541 760 541 720 541C680 541 640 541 600 541C560 541 520 541 480 541C440 541 400 541 360 541C320 541 280 541 240 541C200 541 160 541 120 541C80 541 40 541 20 541L0 541Z" fill="#ee5d67"></path><path d="M0 503L20 500.8C40 498.7 80 494.3 120 491C160 487.7 200 485.3 240 488.8C280 492.3 320 501.7 360 506.3C400 511 440 511 480 506.7C520 502.3 560 493.7 600 485.7C640 477.7 680 470.3 720 471.7C760 473 800 483 840 489.8C880 496.7 920 500.3 940 502.2L960 504L960 541L940 541C920 541 880 541 840 541C800 541 760 541 720 541C680 541 640 541 600 541C560 541 520 541 480 541C440 541 400 541 360 541C320 541 280 541 240 541C200 541 160 541 120 541C80 541 40 541 20 541L0 541Z" fill="#fa7268"></path></svg>