<svg id="visual" viewBox="0 0 960 540" width="960" height="540" xmlns="http://www.w3.org/2000/svg" xmlns:xlink="http://www.w3.org/1999/xlink" version="1.1"><g stroke-width="0.02" stroke-linejoin="bevel"><path d="M469 253L487 165L357 173Z" fill="#8e379d" stroke="#FFFFFF"></path><path d="M357 173L358 285L469 253Z" fill="#272027" stroke="#FFFFFF"></path><path d="M487 165L385 89L357 173Z" fill="#272027" stroke="#FFFFFF"></path><path d="M487 165L458 68L385 89Z" fill="#532c59" stroke="#FFFFFF"></path><path d="M285 73L280 161L357 173Z" fill="#1c1c1c" stroke="#FFFFFF"></path><path d="M357 173L265 259L358 285Z" fill="#272027" stroke="#FFFFFF"></path><path d="M306 341L379 353L358 285Z" fill="#5e2f66" stroke="#FFFFFF"></path><path d="M358 285L379 353L469 253Z" fill="#322333" stroke="#FFFFFF"></path><path d="M573 295L588 163L469 253Z" fill="#5e2f66" stroke="#FFFFFF"></path><path d="M469 253L588 163L487 165Z" fill="#1c1c1c" stroke="#FFFFFF"></path><path d="M487 165L565 82L458 68Z" fill="#3d263f" stroke="#FFFFFF"></path><path d="M280 161L265 259L357 173Z" fill="#322333" stroke="#FFFFFF"></path><path d="M506 381L573 295L469 253Z" fill="#763381" stroke="#FFFFFF"></path><path d="M588 163L565 82L487 165Z" fill="#1c1c1c" stroke="#FFFFFF"></path><path d="M265 259L306 341L358 285Z" fill="#8e379d" stroke="#FFFFFF"></path><path d="M374 0L285 73L385 89Z" fill="#272027" stroke="#FFFFFF"></path><path d="M385 89L285 73L357 173Z" fill="#3d263f" stroke="#FFFFFF"></path><path d="M280 161L204 195L265 259Z" fill="#3d263f" stroke="#FFFFFF"></path><path d="M505 423L506 381L386 443Z" fill="#272027" stroke="#FFFFFF"></path><path d="M379 353L506 381L469 253Z" fill="#532c59" stroke="#FFFFFF"></path><path d="M565 82L458 0L458 68Z" fill="#532c59" stroke="#FFFFFF"></path><path d="M458 68L374 0L385 89Z" fill="#8e379d" stroke="#FFFFFF"></path><path d="M458 0L374 0L458 68Z" fill="#763381" stroke="#FFFFFF"></path><path d="M187 72L204 195L280 161Z" fill="#532c59" stroke="#FFFFFF"></path><path d="M265 259L215 283L306 341Z" fill="#763381" stroke="#FFFFFF"></path><path d="M667 252L647 168L588 163Z" fill="#82358f" stroke="#FFFFFF"></path><path d="M588 163L647 168L565 82Z" fill="#5e2f66" stroke="#FFFFFF"></path><path d="M204 195L215 283L265 259Z" fill="#763381" stroke="#FFFFFF"></path><path d="M506 381L571 378L573 295Z" fill="#82358f" stroke="#FFFFFF"></path><path d="M573 295L667 252L588 163Z" fill="#3d263f" stroke="#FFFFFF"></path><path d="M374 0L299 0L285 73Z" fill="#48294c" stroke="#FFFFFF"></path><path d="M285 73L187 72L280 161Z" fill="#48294c" stroke="#FFFFFF"></path><path d="M386 443L506 381L379 353Z" fill="#3d263f" stroke="#FFFFFF"></path><path d="M506 381L505 423L571 378Z" fill="#48294c" stroke="#FFFFFF"></path><path d="M305 439L379 353L306 341Z" fill="#532c59" stroke="#FFFFFF"></path><path d="M305 439L386 443L379 353Z" fill="#48294c" stroke="#FFFFFF"></path><path d="M675 337L667 252L573 295Z" fill="#5e2f66" stroke="#FFFFFF"></path><path d="M658 0L578 0L565 82Z" fill="#322333" stroke="#FFFFFF"></path><path d="M565 82L578 0L458 0Z" fill="#322333" stroke="#FFFFFF"></path><path d="M176 0L187 72L285 73Z" fill="#8e379d" stroke="#FFFFFF"></path><path d="M81 249L195 352L215 283Z" fill="#8e379d" stroke="#FFFFFF"></path><path d="M195 352L305 439L306 341Z" fill="#1c1c1c" stroke="#FFFFFF"></path><path d="M177 431L195 352L73 343Z" fill="#1c1c1c" stroke="#FFFFFF"></path><path d="M215 283L195 352L306 341Z" fill="#3d263f" stroke="#FFFFFF"></path><path d="M647 168L679 71L565 82Z" fill="#763381" stroke="#FFFFFF"></path><path d="M769 173L679 71L647 168Z" fill="#6a3173" stroke="#FFFFFF"></path><path d="M689 440L675 337L571 378Z" fill="#48294c" stroke="#FFFFFF"></path><path d="M571 378L675 337L573 295Z" fill="#763381" stroke="#FFFFFF"></path><path d="M667 252L769 173L647 168Z" fill="#3d263f" stroke="#FFFFFF"></path><path d="M679 71L658 0L565 82Z" fill="#82358f" stroke="#FFFFFF"></path><path d="M505 423L585 467L571 378Z" fill="#48294c" stroke="#FFFFFF"></path><path d="M489 540L585 467L505 423Z" fill="#3d263f" stroke="#FFFFFF"></path><path d="M489 540L505 423L386 443Z" fill="#1c1c1c" stroke="#FFFFFF"></path><path d="M299 0L176 0L285 73Z" fill="#6a3173" stroke="#FFFFFF"></path><path d="M81 249L215 283L204 195Z" fill="#532c59" stroke="#FFFFFF"></path><path d="M747 381L748 296L675 337Z" fill="#82358f" stroke="#FFFFFF"></path><path d="M675 337L748 296L667 252Z" fill="#532c59" stroke="#FFFFFF"></path><path d="M679 71L758 0L658 0Z" fill="#3d263f" stroke="#FFFFFF"></path><path d="M195 352L177 431L305 439Z" fill="#5e2f66" stroke="#FFFFFF"></path><path d="M305 439L382 540L386 443Z" fill="#3d263f" stroke="#FFFFFF"></path><path d="M84 161L204 195L187 72Z" fill="#763381" stroke="#FFFFFF"></path><path d="M89 67L84 161L187 72Z" fill="#5e2f66" stroke="#FFFFFF"></path><path d="M262 540L382 540L305 439Z" fill="#82358f" stroke="#FFFFFF"></path><path d="M748 296L769 173L667 252Z" fill="#82358f" stroke="#FFFFFF"></path><path d="M84 161L81 249L204 195Z" fill="#532c59" stroke="#FFFFFF"></path><path d="M382 540L489 540L386 443Z" fill="#322333" stroke="#FFFFFF"></path><path d="M585 467L689 440L571 378Z" fill="#82358f" stroke="#FFFFFF"></path><path d="M695 540L689 440L585 467Z" fill="#48294c" stroke="#FFFFFF"></path><path d="M115 0L89 67L187 72Z" fill="#322333" stroke="#FFFFFF"></path><path d="M769 173L769 96L679 71Z" fill="#532c59" stroke="#FFFFFF"></path><path d="M176 0L115 0L187 72Z" fill="#272027" stroke="#FFFFFF"></path><path d="M689 440L747 381L675 337Z" fill="#1c1c1c" stroke="#FFFFFF"></path><path d="M867 264L858 159L769 173Z" fill="#532c59" stroke="#FFFFFF"></path><path d="M177 431L262 540L305 439Z" fill="#82358f" stroke="#FFFFFF"></path><path d="M0 266L73 343L81 249Z" fill="#763381" stroke="#FFFFFF"></path><path d="M81 249L73 343L195 352Z" fill="#322333" stroke="#FFFFFF"></path><path d="M177 431L213 540L262 540Z" fill="#3d263f" stroke="#FFFFFF"></path><path d="M0 166L81 249L84 161Z" fill="#322333" stroke="#FFFFFF"></path><path d="M489 540L589 540L585 467Z" fill="#8e379d" stroke="#FFFFFF"></path><path d="M769 96L758 0L679 71Z" fill="#82358f" stroke="#FFFFFF"></path><path d="M695 540L747 431L689 440Z" fill="#272027" stroke="#FFFFFF"></path><path d="M689 440L747 431L747 381Z" fill="#48294c" stroke="#FFFFFF"></path><path d="M867 264L769 173L748 296Z" fill="#322333" stroke="#FFFFFF"></path><path d="M76 475L213 540L177 431Z" fill="#322333" stroke="#FFFFFF"></path><path d="M0 66L84 161L89 67Z" fill="#763381" stroke="#FFFFFF"></path><path d="M0 66L0 166L84 161Z" fill="#322333" stroke="#FFFFFF"></path><path d="M0 166L0 266L81 249Z" fill="#82358f" stroke="#FFFFFF"></path><path d="M73 343L76 475L177 431Z" fill="#1c1c1c" stroke="#FFFFFF"></path><path d="M867 264L748 296L854 343Z" fill="#532c59" stroke="#FFFFFF"></path><path d="M769 173L858 159L769 96Z" fill="#8e379d" stroke="#FFFFFF"></path><path d="M769 96L838 0L758 0Z" fill="#82358f" stroke="#FFFFFF"></path><path d="M589 540L695 540L585 467Z" fill="#272027" stroke="#FFFFFF"></path><path d="M0 0L0 66L89 67Z" fill="#8e379d" stroke="#FFFFFF"></path><path d="M0 375L76 475L73 343Z" fill="#532c59" stroke="#FFFFFF"></path><path d="M854 343L748 296L747 381Z" fill="#48294c" stroke="#FFFFFF"></path><path d="M854 343L747 381L747 431Z" fill="#82358f" stroke="#FFFFFF"></path><path d="M868 462L854 343L747 431Z" fill="#8e379d" stroke="#FFFFFF"></path><path d="M960 112L870 96L858 159Z" fill="#322333" stroke="#FFFFFF"></path><path d="M858 159L870 96L769 96Z" fill="#322333" stroke="#FFFFFF"></path><path d="M870 96L838 0L769 96Z" fill="#532c59" stroke="#FFFFFF"></path><path d="M0 266L0 375L73 343Z" fill="#1c1c1c" stroke="#FFFFFF"></path><path d="M115 0L0 0L89 67Z" fill="#272027" stroke="#FFFFFF"></path><path d="M695 540L762 540L747 431Z" fill="#82358f" stroke="#FFFFFF"></path><path d="M76 475L74 540L213 540Z" fill="#532c59" stroke="#FFFFFF"></path><path d="M0 540L74 540L76 475Z" fill="#763381" stroke="#FFFFFF"></path><path d="M0 375L0 448L76 475Z" fill="#3d263f" stroke="#FFFFFF"></path><path d="M762 540L868 462L747 431Z" fill="#322333" stroke="#FFFFFF"></path><path d="M960 257L960 184L867 264Z" fill="#82358f" stroke="#FFFFFF"></path><path d="M867 264L960 184L858 159Z" fill="#322333" stroke="#FFFFFF"></path><path d="M960 257L867 264L854 343Z" fill="#1c1c1c" stroke="#FFFFFF"></path><path d="M870 96L960 0L838 0Z" fill="#5e2f66" stroke="#FFFFFF"></path><path d="M960 386L960 257L854 343Z" fill="#1c1c1c" stroke="#FFFFFF"></path><path d="M960 184L960 112L858 159Z" fill="#322333" stroke="#FFFFFF"></path><path d="M0 448L0 540L76 475Z" fill="#322333" stroke="#FFFFFF"></path><path d="M868 462L960 386L854 343Z" fill="#82358f" stroke="#FFFFFF"></path><path d="M960 112L960 0L870 96Z" fill="#6a3173" stroke="#FFFFFF"></path><path d="M762 540L884 540L868 462Z" fill="#1c1c1c" stroke="#FFFFFF"></path><path d="M868 462L960 460L960 386Z" fill="#1c1c1c" stroke="#FFFFFF"></path><path d="M884 540L960 460L868 462Z" fill="#82358f" stroke="#FFFFFF"></path><path d="M884 540L960 540L960 460Z" fill="#8e379d" stroke="#FFFFFF"></path></g></svg>