<svg id="visual" viewBox="0 0 960 540" width="960" height="540" xmlns="http://www.w3.org/2000/svg" xmlns:xlink="http://www.w3.org/1999/xlink" version="1.1"><rect width="960" height="540" fill="#731284"></rect><g><g transform="translate(585 23)"><path d="M0 -42.1L29.8 -29.8L42.1 0L29.8 29.8L0 42.1L-29.8 29.8L-42.1 0L-29.8 -29.8Z" fill="none" stroke="#3d1546" stroke-width="2"></path></g><g transform="translate(873 269)"><path d="M0 -6L4.2 -4.2L6 0L4.2 4.2L0 6L-4.2 4.2L-6 0L-4.2 -4.2Z" fill="none" stroke="#3d1546" stroke-width="2"></path></g><g transform="translate(19 95)"><path d="M0 -20L14.1 -14.1L20 0L14.1 14.1L0 20L-14.1 14.1L-20 0L-14.1 -14.1Z" stroke="#3d1546" fill="none" stroke-width="2"></path></g><g transform="translate(384 188)"><path d="M0 -26L18.4 -18.4L26 0L18.4 18.4L0 26L-18.4 18.4L-26 0L-18.4 -18.4Z" stroke="#3d1546" fill="none" stroke-width="2"></path></g><g transform="translate(107 388)"><path d="M0 -41L29 -29L41 0L29 29L0 41L-29 29L-41 0L-29 -29Z" stroke="#3d1546" fill="none" stroke-width="2"></path></g><g transform="translate(817 519)"><path d="M0 -15L10.6 -10.6L15 0L10.6 10.6L0 15L-10.6 10.6L-15 0L-10.6 -10.6Z" stroke="#3d1546" fill="none" stroke-width="2"></path></g><g transform="translate(644 311)"><path d="M0 -10L7.1 -7.1L10 0L7.1 7.1L0 10L-7.1 7.1L-10 0L-7.1 -7.1Z" stroke="#3d1546" fill="none" stroke-width="2"></path></g><g transform="translate(419 33)"><path d="M0 -41L29 -29L41 0L29 29L0 41L-29 29L-41 0L-29 -29Z" stroke="#3d1546" fill="none" stroke-width="2"></path></g><g transform="translate(934 362)"><path d="M0 -16L11.3 -11.3L16 0L11.3 11.3L0 16L-11.3 11.3L-16 0L-11.3 -11.3Z" stroke="#3d1546" fill="none" stroke-width="2"></path></g><g transform="translate(386 301)"><path d="M0 -17L12 -12L17 0L12 12L0 17L-12 12L-17 0L-12 -12Z" stroke="#3d1546" fill="none" stroke-width="2"></path></g><g transform="translate(252 183)"><path d="M0 -6L4.2 -4.2L6 0L4.2 4.2L0 6L-4.2 4.2L-6 0L-4.2 -4.2Z" stroke="#3d1546" fill="none" stroke-width="2"></path></g><g transform="translate(528 235)"><path d="M0 -15L10.6 -10.6L15 0L10.6 10.6L0 15L-10.6 10.6L-15 0L-10.6 -10.6Z" stroke="#3d1546" fill="none" stroke-width="2"></path></g><g transform="translate(682 472)"><path d="M0 -23L16.3 -16.3L23 0L16.3 16.3L0 23L-16.3 16.3L-23 0L-16.3 -16.3Z" stroke="#3d1546" fill="none" stroke-width="2"></path></g><g transform="translate(436 460)"><path d="M0 -29L20.5 -20.5L29 0L20.5 20.5L0 29L-20.5 20.5L-29 0L-20.5 -20.5Z" stroke="#3d1546" fill="none" stroke-width="2"></path></g><g transform="translate(913 5)"><path d="M0 -26L18.4 -18.4L26 0L18.4 18.4L0 26L-18.4 18.4L-26 0L-18.4 -18.4Z" stroke="#3d1546" fill="none" stroke-width="2"></path></g><g transform="translate(700 115)"><path d="M0 -13L9.2 -9.2L13 0L9.2 9.2L0 13L-9.2 9.2L-13 0L-9.2 -9.2Z" stroke="#3d1546" fill="none" stroke-width="2"></path></g><g transform="translate(189 104)"><path d="M0 -34L24 -24L34 0L24 24L0 34L-24 24L-34 0L-24 -24Z" stroke="#3d1546" fill="none" stroke-width="2"></path></g><g transform="translate(782 289)"><path d="M0 -12L8.5 -8.5L12 0L8.5 8.5L0 12L-8.5 8.5L-12 0L-8.5 -8.5Z" stroke="#3d1546" fill="none" stroke-width="2"></path></g><g transform="translate(333 4)"><path d="M0 -23L16.3 -16.3L23 0L16.3 16.3L0 23L-16.3 16.3L-23 0L-16.3 -16.3Z" stroke="#3d1546" fill="none" stroke-width="2"></path></g><g transform="translate(686 5)"><path d="M0 -29L20.5 -20.5L29 0L20.5 20.5L0 29L-20.5 20.5L-29 0L-20.5 -20.5Z" stroke="#3d1546" fill="none" stroke-width="2"></path></g><g transform="translate(884 108)"><path d="M0 -23L16.3 -16.3L23 0L16.3 16.3L0 23L-16.3 16.3L-23 0L-16.3 -16.3Z" stroke="#3d1546" fill="none" stroke-width="2"></path></g><g transform="translate(143 536)"><path d="M0 -20L14.1 -14.1L20 0L14.1 14.1L0 20L-14.1 14.1L-20 0L-14.1 -14.1Z" stroke="#3d1546" fill="none" stroke-width="2"></path></g><g transform="translate(775 182)"><path d="M0 -10L7.1 -7.1L10 0L7.1 7.1L0 10L-7.1 7.1L-10 0L-7.1 -7.1Z" stroke="#3d1546" fill="none" stroke-width="2"></path></g><g transform="translate(64 178)"><path d="M0 -33L23.3 -23.3L33 0L23.3 23.3L0 33L-23.3 23.3L-33 0L-23.3 -23.3Z" stroke="#3d1546" fill="none" stroke-width="2"></path></g><g transform="translate(11 382)"><path d="M0 -35L24.7 -24.7L35 0L24.7 24.7L0 35L-24.7 24.7L-35 0L-24.7 -24.7Z" stroke="#3d1546" fill="none" stroke-width="2"></path></g><g transform="translate(278 338)"><path d="M0 -21L14.8 -14.8L21 0L14.8 14.8L0 21L-14.8 14.8L-21 0L-14.8 -14.8Z" stroke="#3d1546" fill="none" stroke-width="2"></path></g><g transform="translate(102 17)"><path d="M0 -11L7.8 -7.8L11 0L7.8 7.8L0 11L-7.8 7.8L-11 0L-7.8 -7.8Z" stroke="#3d1546" fill="none" stroke-width="2"></path></g><g transform="translate(452 134)"><path d="M0 -36L25.5 -25.5L36 0L25.5 25.5L0 36L-25.5 25.5L-36 0L-25.5 -25.5Z" stroke="#3d1546" fill="none" stroke-width="2"></path></g><g transform="translate(220 5)"><path d="M0 -34L24 -24L34 0L24 24L0 34L-24 24L-34 0L-24 -24Z" stroke="#3d1546" fill="none" stroke-width="2"></path></g><g transform="translate(197 292)"><path d="M0 -35L24.7 -24.7L35 0L24.7 24.7L0 35L-24.7 24.7L-35 0L-24.7 -24.7Z" stroke="#3d1546" fill="none" stroke-width="2"></path></g><g transform="translate(544 508)"><path d="M0 -39L27.6 -27.6L39 0L27.6 27.6L0 39L-27.6 27.6L-39 0L-27.6 -27.6Z" stroke="#3d1546" fill="none" stroke-width="2"></path></g><g transform="translate(335 496)"><path d="M0 -16L11.3 -11.3L16 0L11.3 11.3L0 16L-11.3 11.3L-16 0L-11.3 -11.3Z" stroke="#3d1546" fill="none" stroke-width="2"></path></g><g transform="translate(839 419)"><path d="M0 -20L14.1 -14.1L20 0L14.1 14.1L0 20L-14.1 14.1L-20 0L-14.1 -14.1Z" stroke="#3d1546" fill="none" stroke-width="2"></path></g><g transform="translate(18 283)"><path d="M0 -35L24.7 -24.7L35 0L24.7 24.7L0 35L-24.7 24.7L-35 0L-24.7 -24.7Z" stroke="#3d1546" fill="none" stroke-width="2"></path></g><g transform="translate(617 396)"><path d="M0 -9L6.4 -6.4L9 0L6.4 6.4L0 9L-6.4 6.4L-9 0L-6.4 -6.4Z" stroke="#3d1546" fill="none" stroke-width="2"></path></g><g transform="translate(487 340)"><path d="M0 -41L29 -29L41 0L29 29L0 41L-29 29L-41 0L-29 -29Z" stroke="#3d1546" fill="none" stroke-width="2"></path></g><g transform="translate(234 422)"><path d="M0 -26L18.4 -18.4L26 0L18.4 18.4L0 26L-18.4 18.4L-26 0L-18.4 -18.4Z" stroke="#3d1546" fill="none" stroke-width="2"></path></g><g transform="translate(16 497)"><path d="M0 -15L10.6 -10.6L15 0L10.6 10.6L0 15L-10.6 10.6L-15 0L-10.6 -10.6Z" stroke="#3d1546" fill="none" stroke-width="2"></path></g><g transform="translate(604 192)"><path d="M0 -34L24 -24L34 0L24 24L0 34L-24 24L-34 0L-24 -24Z" stroke="#3d1546" fill="none" stroke-width="2"></path></g><g transform="translate(360 104)"><path d="M0 -7L4.9 -4.9L7 0L4.9 4.9L0 7L-4.9 4.9L-7 0L-4.9 -4.9Z" stroke="#3d1546" fill="none" stroke-width="2"></path></g><g transform="translate(771 12)"><path d="M0 -32L22.6 -22.6L32 0L22.6 22.6L0 32L-22.6 22.6L-32 0L-22.6 -22.6Z" stroke="#3d1546" fill="none" stroke-width="2"></path></g><g transform="translate(791 95)"><path d="M0 -9L6.4 -6.4L9 0L6.4 6.4L0 9L-6.4 6.4L-9 0L-6.4 -6.4Z" stroke="#3d1546" fill="none" stroke-width="2"></path></g><g transform="translate(527 86)"><path d="M0 -31L21.9 -21.9L31 0L21.9 21.9L0 31L-21.9 21.9L-31 0L-21.9 -21.9Z" stroke="#3d1546" fill="none" stroke-width="2"></path></g><g transform="translate(535 417)"><path d="M0 -13L9.2 -9.2L13 0L9.2 9.2L0 13L-9.2 9.2L-13 0L-9.2 -9.2Z" stroke="#3d1546" fill="none" stroke-width="2"></path></g><g transform="translate(918 497)"><path d="M0 -7L4.9 -4.9L7 0L4.9 4.9L0 7L-4.9 4.9L-7 0L-4.9 -4.9Z" stroke="#3d1546" fill="none" stroke-width="2"></path></g><g transform="translate(729 386)"><path d="M0 -7L4.9 -4.9L7 0L4.9 4.9L0 7L-4.9 4.9L-7 0L-4.9 -4.9Z" stroke="#3d1546" fill="none" stroke-width="2"></path></g><g transform="translate(304 254)"><path d="M0 -35L24.7 -24.7L35 0L24.7 24.7L0 35L-24.7 24.7L-35 0L-24.7 -24.7Z" stroke="#3d1546" fill="none" stroke-width="2"></path></g><g transform="translate(239 508)"><path d="M0 -41L29 -29L41 0L29 29L0 41L-29 29L-41 0L-29 -29Z" stroke="#3d1546" fill="none" stroke-width="2"></path></g><g transform="translate(112 303)"><path d="M0 -24L17 -17L24 0L17 17L0 24L-17 17L-24 0L-17 -17Z" stroke="#3d1546" fill="none" stroke-width="2"></path></g><g transform="translate(946 201)"><path d="M0 -29L20.5 -20.5L29 0L20.5 20.5L0 29L-20.5 20.5L-29 0L-20.5 -20.5Z" stroke="#3d1546" fill="none" stroke-width="2"></path></g><g transform="translate(700 245)"><path d="M0 -7L4.9 -4.9L7 0L4.9 4.9L0 7L-4.9 4.9L-7 0L-4.9 -4.9Z" stroke="#3d1546" fill="none" stroke-width="2"></path></g><g transform="translate(338 397)"><path d="M0 -17L12 -12L17 0L12 12L0 17L-12 12L-17 0L-12 -12Z" stroke="#3d1546" fill="none" stroke-width="2"></path></g><g transform="translate(156 182)"><path d="M0 -23L16.3 -16.3L23 0L16.3 16.3L0 23L-16.3 16.3L-23 0L-16.3 -16.3Z" stroke="#3d1546" fill="none" stroke-width="2"></path></g><g transform="translate(18 4)"><path d="M0 -27L19.1 -19.1L27 0L19.1 19.1L0 27L-19.1 19.1L-27 0L-19.1 -19.1Z" stroke="#3d1546" fill="none" stroke-width="2"></path></g><g transform="translate(281 74)"><path d="M0 -19L13.4 -13.4L19 0L13.4 13.4L0 19L-13.4 13.4L-19 0L-13.4 -13.4Z" stroke="#3d1546" fill="none" stroke-width="2"></path></g></g></svg>